<svg xmlns="http://www.w3.org/2000/svg" viewBox="0 0 273.24 63.79"><defs><style>.cls-1{fill:#93278f;}.cls-2{fill:#006837;}.cls-3{fill:#fcee21;}</style></defs><title>Asset 2</title><g id="Layer_2" data-name="Layer 2"><g id="Layer_1-2" data-name="Layer 1"><path class="cls-1" d="M42.48,109.33c-6.48,3.37-14.4,3.91-18.54,3.91-13.5,0-21.42-6.73-21.42-20,0-13.73,10.53-26.91,27.9-26.91C39.78,66.32,48.06,71,48.06,81c0,10.64-10.17,15.28-30.42,14.73a6.35,6.35,0,0,0,1.71,2.73c1.89,1.64,4.86,2.36,8.55,2.36a31.63,31.63,0,0,0,13.68-2.91ZM28.53,77.68c-6.3,0-9,4.19-9.36,6.37,10.62,0,13.68-1,13.68-3.64C32.85,79.05,31.23,77.68,28.53,77.68Z" transform="translate(-2.52 -51.04)"/><path class="cls-2" d="M82,100.51c0-4.37-1.89-6.37-6.39-8.55l-4-1.91C60.48,84.69,54.45,79.23,54.45,68.86,54.45,57.77,63.18,51,77.67,51c6.57,0,13.32,1.63,17.91,4.54l-.81,13.1H85.41L83.34,55l7.83,2.45V62c-5-3.18-8.37-5.18-13-5.18-4.41,0-8.1,3.18-8.1,7.45,0,4.46,2.52,6.64,7.38,9L82,75.41C93.33,80.87,98.1,85.78,98.1,95.23,98.1,106,90.27,114,73.71,114,67,114,59,112.7,53.37,109.24l.54-13.82h9.54l2.34,15-7.38-2.09V104c5.76,2.72,9.72,4.27,15.39,4.27S82,104.6,82,100.51Z" transform="translate(-2.52 -51.04)"/><path class="cls-2" d="M127.17,105.06a7.13,7.13,0,0,0,4.41-1.82l2.25,2.09c-2.43,5.27-6.84,8.28-14.22,8.28-8.91,0-14-3.82-14-13.55,0-3.55.09-6.19.09-9.74V74.68h-5.13v-6L111,67.32l-5.76,3.91L112.05,55h10.71v44.1C122.76,103.15,124.65,105.06,127.17,105.06ZM131,67.86v6.82H114.3V67.86Z" transform="translate(-2.52 -51.04)"/><path class="cls-2" d="M194.85,93.05V87.32c0-5-.09-6.45-.27-10.09l-4.86-.82V72.68l19.89-6.27,1.62,1L212,78.5V93.05c0,5.64.09,15,.27,19.1H194.58C194.76,108.06,194.85,98.69,194.85,93.05Zm-4.41,14.46,8.1-1.82H211l8.1,1.82v4.64H190.44Zm13.68-26.37h7.38l-.81,3.18c1.08-12.18,7.65-17.91,13.05-17.91,4.41,0,7.74,2.54,8.37,8.09-.27,4.91-3.24,7.73-6.84,7.73-3,0-5.22-1.55-7.56-5l-2.7-4,3.33,2.18A23.76,23.76,0,0,0,212,87.32l-7.83-.91Z" transform="translate(-2.52 -51.04)"/><path class="cls-2" d="M275.76,86.32a20.36,20.36,0,0,1-.45,4.82h-36V86h15.12c4.32,0,5.49-1.46,5.49-6.09,0-6.28-2.25-8.55-4.59-8.55-3,0-5.13,3.82-5.13,17,0,10.92,5.31,15.46,11.16,15.46a14.14,14.14,0,0,0,10.26-4.27l3.51,3.46c-3.87,7.36-10.62,10.64-19.53,10.64-13.5,0-23.4-8.73-23.4-23.74,0-15.64,12.42-23.46,24.21-23.46C269.28,66.41,275.76,75.32,275.76,86.32Z" transform="translate(-2.52 -51.04)"/><g id="Hat"><g id="Go_to_Web" data-name="Go to Web"><polygon points="162.76 31.75 162.76 56.6 169.62 50.21 174.6 59.15 178.22 57.41 173.43 48.79 182.69 48.79 162.76 31.75"/><path class="cls-3" d="M187.44,95.53l.12-.71c0-.13,0-.26.05-.39l.09-.68c0-.18,0-.36,0-.53s0-.37,0-.56c0-.38,0-.75,0-1.13s0-.74,0-1.1,0-.46-.05-.69,0-.24,0-.36c0-.3-.06-.59-.1-.88a.68.68,0,0,1,0-.14c-.05-.31-.1-.61-.16-.92a.13.13,0,0,0,0-.06h0c-2-10.22-11.09-18.13-22.36-19.07H165l-1-.07q-.59,0-1.17,0t-1.17,0l-1,.07h-.05c-11.28.94-20.39,8.85-22.36,19.07h0s0,0,0,.06c-.05.31-.11.61-.15.92,0,0,0,.09,0,.14,0,.29-.08.58-.11.88l0,.36c0,.23,0,.45-.05.69s0,.73,0,1.1,0,.74,0,1.1l.06.72c0,.11,0,.22,0,.33,0,.3.07.6.11.9,0,0,0,.07,0,.11.05.32.1.64.16,1v0h0c1.83,9.55,9.91,17.07,20.17,18.79h0l.23,0,.7.1.49.06.66.07.65,0c.17,0,.34,0,.52,0,.39,0,.8,0,1.2,0h.07V109.4h-.07a20.74,20.74,0,0,1-3.28-.27,44.19,44.19,0,0,1-2-9.24c1.73.09,3.51.15,5.33.15h.07V97h-.07c-2,0-3.88-.06-5.64-.17q-.18-2.46-.18-5.25t.18-5.25c1.76-.11,3.64-.18,5.64-.18s3.87.07,5.62.18l0,.28a4,4,0,0,1,1.4.78l2,1.76c0-.86-.07-1.7-.13-2.54a55.2,55.2,0,0,1,9.94,1.91,17.25,17.25,0,0,1,.29,3.06,16.18,16.18,0,0,1-.3,3c-.78.24-1.63.47-2.57.69l2,1.68h0l4.62,4a22.41,22.41,0,0,0,1.71-5.23h0ZM155.71,74.91a52.81,52.81,0,0,0-1.62,8.51A65.22,65.22,0,0,0,145,84.93,18.69,18.69,0,0,1,155.71,74.91Zm0,33.23a18.69,18.69,0,0,1-10.76-10,65.22,65.22,0,0,0,9.14,1.51A52.6,52.6,0,0,0,155.71,108.14ZM153.8,96.49a54.25,54.25,0,0,1-9.92-1.91,16.17,16.17,0,0,1-.29-3,16.36,16.36,0,0,1,.29-3.06,55.07,55.07,0,0,1,9.93-1.91c-.11,1.61-.17,3.27-.17,5S153.7,94.88,153.8,96.49Zm9-13.49c-1.82,0-3.6.06-5.33.16a45,45,0,0,1,2-9.25,20.76,20.76,0,0,1,6.55,0,45,45,0,0,1,2.05,9.25C166.38,83.06,164.61,83,162.79,83Zm8.69.42a52.86,52.86,0,0,0-1.61-8.51,18.75,18.75,0,0,1,10.76,10A65.37,65.37,0,0,0,171.48,83.42Z" transform="translate(-2.52 -51.04)"/></g></g></g></g></svg>