<svg xmlns="http://www.w3.org/2000/svg" viewBox="0 0 288.79 115.72"><defs><style>.cls-1{fill:#93278f;}.cls-2{fill:#006837;}</style></defs><title>Asset 1</title><g id="Layer_2" data-name="Layer 2"><g id="Layer_1-2" data-name="Layer 1"><path class="cls-1" d="M55.51,110.22c-6.48,3.37-14.4,3.91-18.54,3.91-13.5,0-21.42-6.73-21.42-20,0-13.74,10.53-26.92,27.9-26.92,9.36,0,17.64,4.64,17.64,14.64,0,10.64-10.17,15.28-30.42,14.73a6.35,6.35,0,0,0,1.71,2.73c1.89,1.64,4.86,2.36,8.55,2.36a31.63,31.63,0,0,0,13.68-2.91ZM41.56,78.57c-6.3,0-9,4.19-9.36,6.37,10.62,0,13.68-1,13.68-3.64C45.88,79.94,44.26,78.57,41.56,78.57Z"/><path class="cls-2" d="M95,101.4C95,97,93.13,95,88.63,92.85l-4-1.91C73.51,85.58,67.48,80.12,67.48,69.75c0-11.09,8.73-17.82,23.22-17.82,6.57,0,13.32,1.64,17.91,4.55l-.81,13.09H98.44L96.37,55.84l7.83,2.45v4.55c-5-3.18-8.37-5.18-13-5.18-4.41,0-8.1,3.18-8.1,7.46,0,4.45,2.52,6.63,7.38,9L95,76.3c11.34,5.46,16.11,10.37,16.11,19.83,0,10.73-7.83,18.73-24.39,18.73-6.75,0-14.76-1.27-20.34-4.73l.54-13.82h9.54l2.34,15-7.38-2.09v-4.36c5.76,2.73,9.72,4.27,15.39,4.27S95,105.49,95,101.4Z"/><path class="cls-2" d="M140.2,106a7.13,7.13,0,0,0,4.41-1.82l2.25,2.09c-2.43,5.28-6.84,8.28-14.22,8.28-8.91,0-14-3.82-14-13.55,0-3.55.09-6.19.09-9.73V75.57h-5.13v-6L124,68.21l-5.76,3.91,6.84-16.28h10.71V100C135.79,104,137.68,106,140.2,106Zm3.87-37.2v6.82H127.33V68.75Z"/><path class="cls-2" d="M207.88,93.94V88.21c0-5-.09-6.45-.27-10.09l-4.86-.82V73.57l19.89-6.27,1.62,1L225,79.39V93.94c0,5.64.09,15,.27,19.1H207.61C207.79,109,207.88,99.58,207.88,93.94Zm-4.41,14.46,8.1-1.81H224l8.1,1.81V113H203.47ZM217.15,82h7.38l-.81,3.18C224.8,73,231.37,67.3,236.77,67.3c4.41,0,7.74,2.54,8.37,8.09-.27,4.91-3.24,7.73-6.84,7.73-3,0-5.22-1.54-7.56-5l-2.7-4,3.33,2.18A23.81,23.81,0,0,0,225,88.21l-7.83-.9Z"/><path class="cls-2" d="M288.79,87.21a20.36,20.36,0,0,1-.45,4.82h-36V86.85h15.12c4.32,0,5.49-1.45,5.49-6.09,0-6.28-2.25-8.55-4.59-8.55-3,0-5.13,3.82-5.13,17,0,10.91,5.31,15.46,11.16,15.46a14.11,14.11,0,0,0,10.26-4.28l3.51,3.46c-3.87,7.36-10.62,10.64-19.53,10.64-13.5,0-23.4-8.73-23.4-23.74,0-15.64,12.42-23.46,24.21-23.46C282.31,67.3,288.79,76.21,288.79,87.21Z"/><g id="Hat"><g id="Go_to_Web" data-name="Go to Web"><path class="cls-2" d="M86.14,9.58c-7.79-6.1-19-7.62-19-7.62C66.75-.14,64,0,64,0c-4.26-.28-4.55,2.5-4.55,2.5C49.09,2,41.69,7.94,32.8,11.65c-2.65,1.11-5.3,5.54-5.3,5.54-4.7,7.49-5.58,23.7-5.58,23.7-.15,1-1.91,2.49-1.91,2.49L1.34,54C-.27,55.29,0,56.4,0,56.4c.59.83,1.62.14,1.62.14l1.43-.86c2.25-.85,6.52-2.46,10-3.86a24.87,24.87,0,0,1,10.21.84c7.06,2.77,26,5,26,5,24.7.82,36.16-12.34,36.16-12.34,3.29,2.18,8.64,1.91,11.46,4.58.59.55.89.41.89.41,9-21-5-35.32-5-35.32C89.82,12.76,86.14,9.58,86.14,9.58Z"/><path class="cls-2" d="M200.82,91.32l-.06-.69c0-.12,0-.24,0-.36,0-.3-.07-.59-.11-.88,0,0,0-.09,0-.14-.05-.31-.1-.61-.16-.91a.13.13,0,0,0,0-.06h0c-2-10.22-11.09-18.13-22.36-19.07H178l-1-.07q-.59,0-1.17,0t-1.17,0l-1,.07h-.05c-11.27.94-20.39,8.85-22.36,19.07h0a.13.13,0,0,0,0,.06c-.06.3-.11.6-.16.91,0,0,0,.09,0,.14,0,.29-.08.58-.11.88,0,.12,0,.24,0,.36l-.06.69c0,.36,0,.73,0,1.1s0,.74,0,1.1l.06.72c0,.11,0,.22,0,.33,0,.3.07.6.11.9,0,0,0,.07,0,.11.05.32.1.65.16,1h0c1.84,9.55,9.92,17.07,20.17,18.79h0l.23,0,.7.1.49.06.66.07.65,0,.52,0,1.2,0h.07v-5.43h-.07a20.84,20.84,0,0,1-3.28-.27,44.84,44.84,0,0,1-2-9.24c1.73.1,3.51.15,5.33.15h.07v-3.1h-.07c-2,0-3.88-.06-5.64-.17-.11-1.64-.18-3.39-.18-5.25s.07-3.61.19-5.25c1.75-.11,3.63-.17,5.63-.17q1.27,0,2.49,0v21.5l6.86-6.39,5,8.94,3.62-1.74-4.8-8.62h8.5l1.26,1.07a22.24,22.24,0,0,0,1.7-5.23h0l0-.14.12-.71c0-.12,0-.25,0-.38l.09-.69c0-.18,0-.35,0-.53s0-.37,0-.56c0-.37,0-.75,0-1.13S200.83,91.68,200.82,91.32Zm-44.2,1.1a17.25,17.25,0,0,1,.29-3.06,55.07,55.07,0,0,1,9.93-1.91c-.11,1.61-.17,3.27-.17,5s.06,3.36.17,5a54.31,54.31,0,0,1-9.93-1.9A17.25,17.25,0,0,1,156.62,92.42ZM158,99a63.79,63.79,0,0,0,9.14,1.51,52.6,52.6,0,0,0,1.62,8.51A18.66,18.66,0,0,1,158,99Zm9.14-14.7A63.71,63.71,0,0,0,158,85.83a18.68,18.68,0,0,1,10.76-10A53,53,0,0,0,167.12,84.31Zm26.54,1.52a63.71,63.71,0,0,0-9.14-1.52,54.15,54.15,0,0,0-1.62-8.51A18.68,18.68,0,0,1,193.66,85.83Zm-17.84-1.94c-1.82,0-3.6.06-5.33.16a44.84,44.84,0,0,1,2-9.24,19.71,19.71,0,0,1,3.28-.27,20.71,20.71,0,0,1,3.27.26,45,45,0,0,1,2,9.25c-.83,0-1.68-.08-2.53-.11l-.3-.26v.25C177.49,83.91,176.66,83.89,175.82,83.89Zm9.07,5.42c0-.62,0-1.25-.09-1.86a55.25,55.25,0,0,1,9.93,1.91,17.25,17.25,0,0,1,.29,3.06,16.18,16.18,0,0,1-.3,3c-.61.19-1.28.37-2,.54Z"/></g></g></g></g></svg>